<svg width="55" height="54" viewBox="0 0 55 54" fill="none" xmlns="http://www.w3.org/2000/svg">
<path d="M50.3972 12.3955H34.4288C32.581 12.3955 31.083 13.8935 31.083 15.7413V39.263C31.083 41.1108 32.581 42.6088 34.4288 42.6088H50.3972C52.245 42.6088 53.743 41.1108 53.743 39.263V15.7413C53.743 13.8935 52.245 12.3955 50.3972 12.3955Z" fill="url(#paint0_linear_214_380)"/>
<path d="M19.9138 12.3955H3.9454C2.09757 12.3955 0.599609 13.8935 0.599609 15.7413V39.263C0.599609 41.1108 2.09757 42.6088 3.9454 42.6088H19.9138C21.7616 42.6088 23.2596 41.1108 23.2596 39.263V15.7413C23.2596 13.8935 21.7616 12.3955 19.9138 12.3955Z" fill="url(#paint1_linear_214_380)"/>
<path d="M31.7308 26.284L24.6945 22.2225C23.7578 21.683 22.5889 22.3574 22.5889 23.4402V31.563C22.5889 32.6458 23.7578 33.3202 24.6945 32.7807L31.7308 28.7193C32.6675 28.1798 32.6675 26.8272 31.7308 26.2877V26.284Z" fill="white"/>
<path d="M46.8142 12.3955H30.8458C28.998 12.3955 27.5 13.8935 27.5 15.7413V39.263C27.5 41.1108 28.998 42.6088 30.8458 42.6088H46.8142C48.662 42.6088 50.16 41.1108 50.16 39.263V15.7413C50.16 13.8935 48.662 12.3955 46.8142 12.3955Z" fill="url(#paint2_linear_214_380)"/>
<path d="M23.8142 12.3955H7.84579C5.99796 12.3955 4.5 13.8935 4.5 15.7413V39.263C4.5 41.1108 5.99796 42.6088 7.84579 42.6088H23.8142C25.662 42.6088 27.16 41.1108 27.16 39.263V15.7413C27.16 13.8935 25.662 12.3955 23.8142 12.3955Z" fill="url(#paint3_linear_214_380)"/>
<g filter="url(#filter0_b_214_380)">
<path d="M39.3367 7H15.2755C13.4277 7 11.9297 8.49796 11.9297 10.3458V44.6542C11.9297 46.502 13.4277 48 15.2755 48H39.3367C41.1845 48 42.6825 46.502 42.6825 44.6542V10.3458C42.6825 8.49796 41.1845 7 39.3367 7Z" fill="url(#paint4_linear_214_380)"/>
<path d="M15.2755 7.5H39.3367C40.9084 7.5 42.1825 8.7741 42.1825 10.3458V44.6542C42.1825 46.2259 40.9084 47.5 39.3367 47.5H15.2755C13.7038 47.5 12.4297 46.2259 12.4297 44.6542V10.3458C12.4297 8.77411 13.7038 7.5 15.2755 7.5Z" stroke="url(#paint5_linear_214_380)"/>
</g>
<defs>
<filter id="filter0_b_214_380" x="-6.07031" y="-11" width="66.7529" height="77" filterUnits="userSpaceOnUse" color-interpolation-filters="sRGB">
<feFlood flood-opacity="0" result="BackgroundImageFix"/>
<feGaussianBlur in="BackgroundImageFix" stdDeviation="9"/>
<feComposite in2="SourceAlpha" operator="in" result="effect1_backgroundBlur_214_380"/>
<feBlend mode="normal" in="SourceGraphic" in2="effect1_backgroundBlur_214_380" result="shape"/>
</filter>
<linearGradient id="paint0_linear_214_380" x1="42.4146" y1="59.2348" x2="42.4146" y2="0.219977" gradientUnits="userSpaceOnUse">
<stop stop-color="#FF2447"/>
<stop offset="1" stop-color="white"/>
</linearGradient>
<linearGradient id="paint1_linear_214_380" x1="11.9312" y1="59.2348" x2="11.9312" y2="0.219977" gradientUnits="userSpaceOnUse">
<stop stop-color="#FF2447"/>
<stop offset="1" stop-color="white"/>
</linearGradient>
<linearGradient id="paint2_linear_214_380" x1="38.8316" y1="59.2348" x2="38.8316" y2="0.219977" gradientUnits="userSpaceOnUse">
<stop stop-color="#FF2447"/>
<stop offset="1" stop-color="white"/>
</linearGradient>
<linearGradient id="paint3_linear_214_380" x1="15.8316" y1="59.2348" x2="15.8316" y2="0.219977" gradientUnits="userSpaceOnUse">
<stop stop-color="#FF2447"/>
<stop offset="1" stop-color="white"/>
</linearGradient>
<linearGradient id="paint4_linear_214_380" x1="13.6659" y1="45.6853" x2="48.5826" y2="19.4954" gradientUnits="userSpaceOnUse">
<stop stop-color="white" stop-opacity="0.2"/>
<stop offset="1" stop-color="white" stop-opacity="0.49"/>
</linearGradient>
<linearGradient id="paint5_linear_214_380" x1="14.1005" y1="10.2246" x2="47.6299" y2="37.115" gradientUnits="userSpaceOnUse">
<stop stop-color="white"/>
<stop offset="1" stop-color="white" stop-opacity="0"/>
</linearGradient>
</defs>
</svg>
